<?xml version="1.0" encoding="utf-8" ?>
<svg baseProfile="tiny" height="100%" version="1.2" width="100%" xmlns="http://www.w3.org/2000/svg" xmlns:ev="http://www.w3.org/2001/xml-events" xmlns:xlink="http://www.w3.org/1999/xlink"><defs /><polyline fill="none" points="0,65 330,65 330,285 0,285 0,65 0,0 65,0 130,65 65,130 0,130 0,0 460,65 590,65 525,0 460,0 460,65 330,350 550,350 550,415 330,415 330,350 -65,350 -220,350 -220,415 -65,415 -65,350" stroke="black" /><line stroke="gray" stroke-dasharray="5,5" x1="0" x2="330" y1="65" y2="65" /><line stroke="gray" stroke-dasharray="5,5" x1="330" x2="330" y1="65" y2="285" /><line stroke="gray" stroke-dasharray="5,5" x1="330" x2="0" y1="285" y2="285" /><line stroke="gray" stroke-dasharray="5,5" x1="0" x2="0" y1="285" y2="65" /><line stroke="gray" stroke-dasharray="5,5" x1="0" x2="130" y1="0" y2="65" /><line stroke="gray" stroke-dasharray="5,5" x1="130" x2="0" y1="65" y2="130" /><line stroke="gray" stroke-dasharray="5,5" x1="460" x2="590" y1="0" y2="65" /><line stroke="gray" stroke-dasharray="5,5" x1="590" x2="460" y1="65" y2="130" /><line stroke="gray" stroke-dasharray="5,5" x1="330" x2="550" y1="285" y2="350" /><line stroke="gray" stroke-dasharray="5,5" x1="550" x2="330" y1="350" y2="415" /><line stroke="gray" stroke-dasharray="5,5" x1="0" x2="-220" y1="285" y2="350" /><line stroke="gray" stroke-dasharray="5,5" x1="-220" x2="0" y1="350" y2="415" /></svg>