<?xml version="1.0" encoding="utf-8" ?>
<svg baseProfile="tiny" height="100%" version="1.2" width="100%" xmlns="http://www.w3.org/2000/svg" xmlns:ev="http://www.w3.org/2001/xml-events" xmlns:xlink="http://www.w3.org/1999/xlink"><defs /><rect fill="none" height="330" stroke="black" width="220" x="0" y="65" /><path d="M 0 65 v -45 a 20,20 0 0 1 5.857864376269049,-5.857864376269049 h 208.2842712474619 a 20,20 0 0 1 5.857864376269049,5.857864376269049 v 45" fill="none" stroke="black" /><path d="M 0 395 v 45 a 20,20 0 0 0 5.857864376269049,5.857864376269049 h 208.2842712474619 a 20,20 0 0 0 5.857864376269049,-5.857864376269049 v -45" fill="none" stroke="black" /><rect fill="none" height="330" stroke="black" width="65" x="-65" y="65" /><rect fill="none" height="330" stroke="black" width="65" x="-130" y="65" /><rect fill="none" height="15" stroke="black" width="20" x="-65" y="378" /><rect fill="none" height="15" stroke="black" width="20" x="-65" y="82" /><rect fill="none" height="330" stroke="black" width="65" x="220" y="65" /><rect fill="none" height="330" stroke="black" width="65" x="285" y="65" /><rect fill="none" height="15" stroke="black" width="20" x="220" y="378" /><rect fill="none" height="15" stroke="black" width="20" x="220" y="82" /><rect fill="none" height="20" stroke="black" width="5" x="0" y="161.6667" /><rect fill="none" height="20" stroke="black" width="5" x="0" y="278.3333" /><rect fill="none" height="20" stroke="black" width="5" x="215" y="161.6667" /><rect fill="none" height="20" stroke="black" width="5" x="215" y="278.3333" /><line stroke="gray" stroke-dasharray="5,5" x1="0" x2="220" y1="65" y2="65" /><line stroke="gray" stroke-dasharray="5,5" x1="0" x2="220" y1="395" y2="395" /><line stroke="gray" stroke-dasharray="5,5" x1="0" x2="0" y1="65" y2="395" /><line stroke="gray" stroke-dasharray="5,5" x1="220" x2="220" y1="65" y2="395" /><line stroke="gray" stroke-dasharray="5,5" x1="0" x2="0" y1="0" y2="65" /><line stroke="gray" stroke-dasharray="5,5" x1="220" x2="220" y1="0" y2="65" /><line stroke="gray" stroke-dasharray="5,5" x1="0" x2="0" y1="460" y2="395" /><line stroke="gray" stroke-dasharray="5,5" x1="220" x2="220" y1="460" y2="395" /><line stroke="gray" stroke-dasharray="5,5" x1="-65" x2="0" y1="65" y2="65" /><line stroke="gray" stroke-dasharray="5,5" x1="-65" x2="0" y1="395" y2="395" /><line stroke="gray" stroke-dasharray="5,5" x1="285" x2="220" y1="65" y2="65" /><line stroke="gray" stroke-dasharray="5,5" x1="285" x2="220" y1="395" y2="395" /><line stroke="gray" stroke-dasharray="5,5" x1="-130" x2="-65" y1="65" y2="65" /><line stroke="gray" stroke-dasharray="5,5" x1="-130" x2="-65" y1="395" y2="395" /><line stroke="gray" stroke-dasharray="5,5" x1="350" x2="285" y1="65" y2="65" /><line stroke="gray" stroke-dasharray="5,5" x1="350" x2="285" y1="395" y2="395" /></svg>