<?xml version="1.0" encoding="utf-8" ?>
<svg baseProfile="full" height="2230" version="1.1" width="2177" xmlns="http://www.w3.org/2000/svg" xmlns:ev="http://www.w3.org/2001/xml-events" xmlns:xlink="http://www.w3.org/1999/xlink"><defs /><circle cx="1682.0" cy="1232.0" fill="none" r="5.0" stroke="red" stroke-width="1" /><circle cx="1983.0" cy="1007.0" fill="none" r="5.0" stroke="red" stroke-width="1" /><circle cx="494.0" cy="1232.0" fill="none" r="5.0" stroke="red" stroke-width="1" /><circle cx="193.0" cy="1226.0" fill="none" r="5.0" stroke="red" stroke-width="1" /><circle cx="1983.0" cy="1226.0" fill="none" r="5.0" stroke="red" stroke-width="1" /><circle cx="197.0" cy="2013.0" fill="none" r="5.0" stroke="red" stroke-width="1" /><circle cx="1678.0" cy="2007.0" fill="none" r="5.0" stroke="red" stroke-width="1" /><circle cx="2162.0" cy="1995.0" fill="none" r="5.0" stroke="red" stroke-width="1" /><circle cx="1979.0" cy="2013.0" fill="none" r="5.0" stroke="red" stroke-width="1" /><circle cx="1669.0" cy="1003.0" fill="none" r="5.0" stroke="red" stroke-width="1" /><circle cx="2162.0" cy="1243.0" fill="none" r="5.0" stroke="red" stroke-width="1" /><circle cx="14.0" cy="1995.0" fill="none" r="5.0" stroke="red" stroke-width="1" /><circle cx="498.0" cy="2007.0" fill="none" r="5.0" stroke="red" stroke-width="1" /><circle cx="193.0" cy="1007.0" fill="none" r="5.0" stroke="red" stroke-width="1" /><circle cx="1669.0" cy="234.0" fill="none" r="5.0" stroke="red" stroke-width="1" /><circle cx="507.0" cy="1003.0" fill="none" r="5.0" stroke="red" stroke-width="1" /><circle cx="507.0" cy="234.0" fill="none" r="5.0" stroke="red" stroke-width="1" /><circle cx="14.0" cy="1243.0" fill="none" r="5.0" stroke="red" stroke-width="1" /><circle cx="2167.0" cy="1694.0" fill="none" r="5.0" stroke="red" stroke-width="1" /><circle cx="2167.0" cy="1392.0" fill="none" r="5.0" stroke="red" stroke-width="1" /><circle cx="2167.0" cy="1544.0" fill="none" r="5.0" stroke="red" stroke-width="1" /><circle cx="9.0" cy="1544.0" fill="none" r="5.0" stroke="red" stroke-width="1" /><circle cx="9.0" cy="1694.0" fill="none" r="5.0" stroke="red" stroke-width="1" /><circle cx="9.0" cy="1392.0" fill="none" r="5.0" stroke="red" stroke-width="1" /><circle cx="9.0" cy="1846.0" fill="none" r="5.0" stroke="red" stroke-width="1" /><circle cx="2166.0" cy="1847.0" fill="none" r="5.0" stroke="red" stroke-width="1" /><circle cx="498.0" cy="1397.0" fill="none" r="5.0" stroke="red" stroke-width="1" /><circle cx="1678.0" cy="1397.0" fill="none" r="5.0" stroke="red" stroke-width="1" /><circle cx="1678.0" cy="1539.0" fill="none" r="5.0" stroke="red" stroke-width="1" /><circle cx="506.0" cy="1539.0" fill="none" r="5.0" stroke="red" stroke-width="1" /><circle cx="1678.0" cy="1841.0" fill="none" r="5.0" stroke="red" stroke-width="1" /><circle cx="498.0" cy="1841.0" fill="none" r="5.0" stroke="red" stroke-width="1" /><circle cx="1669.0" cy="1700.0" fill="none" r="5.0" stroke="red" stroke-width="1" /><circle cx="498.0" cy="1700.0" fill="none" r="5.0" stroke="red" stroke-width="1" /><circle cx="497.0" cy="6.0" fill="none" r="5.0" stroke="red" stroke-width="1" /><circle cx="1679.0" cy="5.0" fill="none" r="5.0" stroke="red" stroke-width="1" /><circle cx="258.0" cy="1238.0" fill="none" r="5.0" stroke="red" stroke-width="1" /><circle cx="1918.0" cy="1237.0" fill="none" r="5.0" stroke="red" stroke-width="1" /><circle cx="2174.0" cy="1841.0" fill="none" r="5.0" stroke="red" stroke-width="1" /><circle cx="258.0" cy="2004.0" fill="none" r="5.0" stroke="red" stroke-width="1" /><circle cx="240.0" cy="1242.0" fill="none" r="5.0" stroke="red" stroke-width="1" /><circle cx="1918.0" cy="2002.0" fill="none" r="5.0" stroke="red" stroke-width="1" /><circle cx="1936.0" cy="1242.0" fill="none" r="5.0" stroke="red" stroke-width="1" /><circle cx="239.0" cy="1996.0" fill="none" r="5.0" stroke="red" stroke-width="1" /><circle cx="1937.0" cy="1996.0" fill="none" r="5.0" stroke="red" stroke-width="1" /><circle cx="1700.0" cy="1239.0" fill="none" r="5.0" stroke="red" stroke-width="1" /><circle cx="287.0" cy="336.0" fill="none" r="5.0" stroke="red" stroke-width="1" /><circle cx="285.0" cy="898.0" fill="none" r="5.0" stroke="red" stroke-width="1" /><circle cx="311.0" cy="310.0" fill="none" r="5.0" stroke="red" stroke-width="1" /><circle cx="305.0" cy="926.0" fill="none" r="5.0" stroke="red" stroke-width="1" /><circle cx="1879.0" cy="321.0" fill="none" r="5.0" stroke="red" stroke-width="1" /><circle cx="1889.0" cy="336.0" fill="none" r="5.0" stroke="red" stroke-width="1" /><circle cx="1871.0" cy="926.0" fill="none" r="5.0" stroke="red" stroke-width="1" /></svg>