<?xml version="1.0" encoding="utf-8" ?>
<svg baseProfile="tiny" height="100%" version="1.2" width="100%" xmlns="http://www.w3.org/2000/svg" xmlns:ev="http://www.w3.org/2001/xml-events" xmlns:xlink="http://www.w3.org/1999/xlink"><defs /><rect fill="none" height="80" stroke="black" width="520" x="0" y="70" /><path d="M 0, 2 a 2,2 0 0 1 2, -2 H 518 a 2,2 0 0 1 2, 2 V 70 H 0 Z" fill="none" stroke="black" /><path d="M 0, 218 a 2,2 0 0 1 2, 2 H 518 a 2,2 0 0 1 2, -2 V 150 H 0 Z" fill="none" stroke="black" /><rect fill="none" height="80" stroke="black" width="60" x="70" y="70" /><rect fill="none" height="80" stroke="black" width="60" x="330" y="70" /><rect fill="none" height="15" stroke="black" width="19" x="51" y="71.5" /><rect fill="none" height="15" stroke="black" width="19" x="51" y="129.5" /><rect fill="none" height="15" stroke="black" width="19" x="409" y="71.5" /><rect fill="none" height="15" stroke="black" width="19" x="409" y="129.5" /><rect fill="none" height="11.5" stroke="black" width="3.5" x="71.5" y="89.0" /><rect fill="none" height="11.5" stroke="black" width="3.5" x="71.5" y="119.5" /><rect fill="none" height="11.5" stroke="black" width="3.5" x="325.0" y="89.0" /><rect fill="none" height="11.5" stroke="black" width="3.5" x="325.0" y="119.5" /><line stroke="gray" stroke-dasharray="5,5" x1="0" x2="60" y1="70" y2="70" /><line stroke="gray" stroke-dasharray="5,5" x1="260" x2="320" y1="70" y2="70" /><line stroke="gray" stroke-dasharray="5,5" x1="520" x2="580" y1="70" y2="70" /><line stroke="gray" stroke-dasharray="5,5" x1="0" x2="60" y1="150" y2="150" /><line stroke="gray" stroke-dasharray="5,5" x1="260" x2="320" y1="150" y2="150" /><line stroke="gray" stroke-dasharray="5,5" x1="520" x2="580" y1="150" y2="150" /><line stroke="gray" stroke-dasharray="5,5" x1="0" x2="0" y1="70" y2="70" /><line stroke="gray" stroke-dasharray="5,5" x1="60" x2="60" y1="70" y2="70" /><line stroke="gray" stroke-dasharray="5,5" x1="260" x2="260" y1="70" y2="70" /><line stroke="gray" stroke-dasharray="5,5" x1="320" x2="320" y1="70" y2="70" /><line stroke="gray" stroke-dasharray="5,5" x1="0" x2="0" y1="150" y2="150" /><line stroke="gray" stroke-dasharray="5,5" x1="60" x2="60" y1="150" y2="150" /><line stroke="gray" stroke-dasharray="5,5" x1="260" x2="260" y1="150" y2="150" /><line stroke="gray" stroke-dasharray="5,5" x1="320" x2="320" y1="150" y2="150" /><line stroke="gray" stroke-dasharray="5,5" x1="70" x2="0" y1="70" y2="70" /><line stroke="gray" stroke-dasharray="5,5" x1="70" x2="60" y1="150" y2="150" /><line stroke="gray" stroke-dasharray="5,5" x1="330" x2="520" y1="70" y2="70" /><line stroke="gray" stroke-dasharray="5,5" x1="330" x2="580" y1="150" y2="150" /></svg>